G75*
%MOIN*%
%OFA0B0*%
%FSLAX25Y25*%
%IPPOS*%
%LPD*%
%AMOC8*
5,1,8,0,0,1.08239X$1,22.5*
%
%ADD10C,0.00000*%
%ADD11C,0.06000*%
%ADD12R,0.03937X0.02165*%
%ADD13C,0.01600*%
D10*
X0006118Y0001000D02*
X0060449Y0001000D01*
X0060596Y0001002D01*
X0060742Y0001008D01*
X0060889Y0001018D01*
X0061035Y0001031D01*
X0061181Y0001049D01*
X0061326Y0001070D01*
X0061470Y0001095D01*
X0061614Y0001125D01*
X0061757Y0001157D01*
X0061899Y0001194D01*
X0062040Y0001235D01*
X0062180Y0001279D01*
X0062319Y0001327D01*
X0062456Y0001378D01*
X0062592Y0001434D01*
X0062727Y0001493D01*
X0062859Y0001555D01*
X0062991Y0001621D01*
X0063120Y0001690D01*
X0063247Y0001763D01*
X0063373Y0001839D01*
X0063496Y0001919D01*
X0063617Y0002002D01*
X0063736Y0002087D01*
X0063853Y0002177D01*
X0063967Y0002269D01*
X0064079Y0002364D01*
X0064188Y0002462D01*
X0064294Y0002563D01*
X0064398Y0002667D01*
X0064499Y0002773D01*
X0064597Y0002882D01*
X0064692Y0002994D01*
X0064784Y0003108D01*
X0064874Y0003225D01*
X0064959Y0003344D01*
X0065042Y0003465D01*
X0065122Y0003588D01*
X0065198Y0003714D01*
X0065271Y0003841D01*
X0065340Y0003970D01*
X0065406Y0004102D01*
X0065468Y0004234D01*
X0065527Y0004369D01*
X0065583Y0004505D01*
X0065634Y0004642D01*
X0065682Y0004781D01*
X0065726Y0004921D01*
X0065767Y0005062D01*
X0065804Y0005204D01*
X0065836Y0005347D01*
X0065866Y0005491D01*
X0065891Y0005635D01*
X0065912Y0005780D01*
X0065930Y0005926D01*
X0065943Y0006072D01*
X0065953Y0006219D01*
X0065959Y0006365D01*
X0065961Y0006512D01*
X0065961Y0031709D01*
X0065959Y0031850D01*
X0065953Y0031991D01*
X0065944Y0032132D01*
X0065930Y0032272D01*
X0065912Y0032412D01*
X0065891Y0032551D01*
X0065866Y0032690D01*
X0065837Y0032828D01*
X0065804Y0032965D01*
X0065768Y0033102D01*
X0065728Y0033237D01*
X0065684Y0033371D01*
X0065636Y0033504D01*
X0065585Y0033635D01*
X0065530Y0033765D01*
X0065471Y0033893D01*
X0065410Y0034020D01*
X0065344Y0034145D01*
X0065275Y0034268D01*
X0065203Y0034389D01*
X0065128Y0034508D01*
X0065049Y0034625D01*
X0064967Y0034740D01*
X0064882Y0034853D01*
X0064794Y0034963D01*
X0064703Y0035070D01*
X0064608Y0035175D01*
X0064511Y0035278D01*
X0064412Y0035377D01*
X0064309Y0035474D01*
X0064204Y0035569D01*
X0064097Y0035660D01*
X0063987Y0035748D01*
X0063874Y0035833D01*
X0063759Y0035915D01*
X0063642Y0035994D01*
X0063523Y0036069D01*
X0063402Y0036141D01*
X0063279Y0036210D01*
X0063154Y0036276D01*
X0063027Y0036337D01*
X0062899Y0036396D01*
X0062769Y0036451D01*
X0062638Y0036502D01*
X0062505Y0036550D01*
X0062371Y0036594D01*
X0062236Y0036634D01*
X0062099Y0036670D01*
X0061962Y0036703D01*
X0061824Y0036732D01*
X0061685Y0036757D01*
X0061546Y0036778D01*
X0061406Y0036796D01*
X0061266Y0036810D01*
X0061125Y0036819D01*
X0060984Y0036825D01*
X0060843Y0036827D01*
X0006118Y0036827D01*
X0005977Y0036825D01*
X0005836Y0036819D01*
X0005695Y0036810D01*
X0005555Y0036796D01*
X0005415Y0036778D01*
X0005276Y0036757D01*
X0005137Y0036732D01*
X0004999Y0036703D01*
X0004862Y0036670D01*
X0004725Y0036634D01*
X0004590Y0036594D01*
X0004456Y0036550D01*
X0004323Y0036502D01*
X0004192Y0036451D01*
X0004062Y0036396D01*
X0003934Y0036337D01*
X0003807Y0036276D01*
X0003682Y0036210D01*
X0003559Y0036141D01*
X0003438Y0036069D01*
X0003319Y0035994D01*
X0003202Y0035915D01*
X0003087Y0035833D01*
X0002974Y0035748D01*
X0002864Y0035660D01*
X0002757Y0035569D01*
X0002652Y0035474D01*
X0002549Y0035377D01*
X0002450Y0035278D01*
X0002353Y0035175D01*
X0002258Y0035070D01*
X0002167Y0034963D01*
X0002079Y0034853D01*
X0001994Y0034740D01*
X0001912Y0034625D01*
X0001833Y0034508D01*
X0001758Y0034389D01*
X0001686Y0034268D01*
X0001617Y0034145D01*
X0001551Y0034020D01*
X0001490Y0033893D01*
X0001431Y0033765D01*
X0001376Y0033635D01*
X0001325Y0033504D01*
X0001277Y0033371D01*
X0001233Y0033237D01*
X0001193Y0033102D01*
X0001157Y0032965D01*
X0001124Y0032828D01*
X0001095Y0032690D01*
X0001070Y0032551D01*
X0001049Y0032412D01*
X0001031Y0032272D01*
X0001017Y0032132D01*
X0001008Y0031991D01*
X0001002Y0031850D01*
X0001000Y0031709D01*
X0001000Y0006118D01*
X0001002Y0005977D01*
X0001008Y0005836D01*
X0001017Y0005695D01*
X0001031Y0005555D01*
X0001049Y0005415D01*
X0001070Y0005276D01*
X0001095Y0005137D01*
X0001124Y0004999D01*
X0001157Y0004862D01*
X0001193Y0004725D01*
X0001233Y0004590D01*
X0001277Y0004456D01*
X0001325Y0004323D01*
X0001376Y0004192D01*
X0001431Y0004062D01*
X0001490Y0003934D01*
X0001551Y0003807D01*
X0001617Y0003682D01*
X0001686Y0003559D01*
X0001758Y0003438D01*
X0001833Y0003319D01*
X0001912Y0003202D01*
X0001994Y0003087D01*
X0002079Y0002974D01*
X0002167Y0002864D01*
X0002258Y0002757D01*
X0002353Y0002652D01*
X0002450Y0002549D01*
X0002549Y0002450D01*
X0002652Y0002353D01*
X0002757Y0002258D01*
X0002864Y0002167D01*
X0002974Y0002079D01*
X0003087Y0001994D01*
X0003202Y0001912D01*
X0003319Y0001833D01*
X0003438Y0001758D01*
X0003559Y0001686D01*
X0003682Y0001617D01*
X0003807Y0001551D01*
X0003934Y0001490D01*
X0004062Y0001431D01*
X0004192Y0001376D01*
X0004323Y0001325D01*
X0004456Y0001277D01*
X0004590Y0001233D01*
X0004725Y0001193D01*
X0004862Y0001157D01*
X0004999Y0001124D01*
X0005137Y0001095D01*
X0005276Y0001070D01*
X0005415Y0001049D01*
X0005555Y0001031D01*
X0005695Y0001017D01*
X0005836Y0001008D01*
X0005977Y0001002D01*
X0006118Y0001000D01*
D11*
X0008638Y0008795D03*
X0008638Y0018795D03*
X0008638Y0028795D03*
X0058638Y0028795D03*
X0058638Y0018795D03*
X0058638Y0008795D03*
D12*
X0038953Y0015055D03*
X0038953Y0018795D03*
X0038953Y0022535D03*
X0028323Y0022535D03*
X0028323Y0018795D03*
X0028323Y0015055D03*
D13*
X0022063Y0008795D01*
X0008638Y0008795D01*
X0008638Y0018795D02*
X0028323Y0018795D01*
X0028323Y0022535D02*
X0022063Y0028795D01*
X0008638Y0028795D01*
X0038953Y0022535D02*
X0045213Y0028795D01*
X0058638Y0028795D01*
X0058638Y0018795D02*
X0038953Y0018795D01*
X0038953Y0015055D02*
X0045213Y0008795D01*
X0058638Y0008795D01*
M02*
